<svg xmlns="http://www.w3.org/2000/svg" width="35.196" height="35.196" viewBox="0 0 35.196 35.196">
  <g id="Group_2499" data-name="Group 2499" transform="translate(-1480.349 -50.349)">
    <circle id="Ellipse_58" data-name="Ellipse 58" cx="16.816" cy="16.816" r="16.816" transform="translate(1481.131 51.131)" fill="#878787"/>
    <path id="Icon_awesome-user-circle" data-name="Icon awesome-user-circle" d="M17.6.563a17.6,17.6,0,1,0,17.6,17.6A17.6,17.6,0,0,0,17.6.563Zm0,6.812a6.244,6.244,0,1,1-6.244,6.244A6.245,6.245,0,0,1,17.6,7.375Zm0,24.41A13.6,13.6,0,0,1,7.2,26.945a7.912,7.912,0,0,1,6.99-4.243,1.736,1.736,0,0,1,.5.078,9.4,9.4,0,0,0,2.9.49,9.359,9.359,0,0,0,2.9-.49A1.736,1.736,0,0,1,21,22.7a7.912,7.912,0,0,1,6.99,4.243A13.6,13.6,0,0,1,17.6,31.785Z" transform="translate(1480.349 49.786)" fill="#e9e9e9"/>
  </g>
</svg>
